<svg width="274" height="24" viewBox="0 0 274 24" fill="none" xmlns="http://www.w3.org/2000/svg">
<path d="M8.01389 7.13889L4.45833 16L0.916667 7.13889H0L3.98611 16.8611H4.86111L8.84722 7.13889H8.01389Z" fill="#FEF4E5"/>
<path d="M18.9746 16.8611V7.13889H18.1413V16.8611H18.9746Z" fill="#FEF4E5"/>
<path d="M33.7726 17C37.0087 17 38.9809 14.7639 38.9809 12C38.9809 9.23611 37.0087 7 33.7726 7C30.5365 7 28.5642 9.23611 28.5642 12C28.5642 14.7639 30.5365 17 33.7726 17ZM33.7726 16.2917C31.0781 16.2917 29.4392 14.375 29.4392 12C29.4392 9.625 31.0781 7.70833 33.7726 7.70833C36.467 7.70833 38.1059 9.625 38.1059 12C38.1059 14.375 36.467 16.2917 33.7726 16.2917Z" fill="#FEF4E5"/>
<path d="M54.3899 16.8611V16.125H49.1121V7.13889H48.2788V16.8611H54.3899Z" fill="#FEF4E5"/>
<path d="M64.4895 16.8611V7.13889H63.6561V16.8611H64.4895Z" fill="#FEF4E5"/>
<path d="M82.5374 15.5417L75.6763 7.11111L74.8152 7.13889V16.8611H75.6485V8.33333L82.6069 16.8611H83.3708V7.13889H82.5374V15.5417Z" fill="#FEF4E5"/>
<path d="M97.8725 17C101.109 17 103.081 14.7639 103.081 12C103.081 9.23611 101.109 7 97.8725 7C94.6364 7 92.6642 9.23611 92.6642 12C92.6642 14.7639 94.6364 17 97.8725 17ZM97.8725 16.2917C95.1781 16.2917 93.5392 14.375 93.5392 12C93.5392 9.625 95.1781 7.70833 97.8725 7.70833C100.567 7.70833 102.206 9.625 102.206 12C102.206 14.375 100.567 16.2917 97.8725 16.2917Z" fill="#FEF4E5"/>
<path d="M128.646 11.4861C129.868 11.2639 130.493 10.5417 130.493 9.48611C130.493 7.70833 128.924 7.13889 126.882 7.13889H122.312V16.8611H126.924C129.312 16.8611 130.882 16.0139 130.882 14.0556C130.882 12.5833 130.104 11.75 128.646 11.4861ZM126.59 8.77778C127.451 8.77778 128.229 9.01389 128.229 9.875C128.229 10.75 127.396 10.8889 126.59 10.8889H124.535V8.77778H126.59ZM124.535 15.1667V12.5139H126.576C127.618 12.5139 128.549 12.8472 128.549 13.8472C128.549 14.8611 127.687 15.1667 126.576 15.1667H124.535Z" fill="#FEF4E5"/>
<path d="M148.085 16.8611L146.155 13.6944C147.182 13.125 147.946 12.0833 147.946 10.6111C147.946 7.75 145.46 7.13889 143.668 7.13889H139.446V16.8611H141.668V14.1944H144.043L145.585 16.8611H148.085ZM141.668 8.98611H143.432C144.682 8.98611 145.641 9.48611 145.641 10.6667C145.641 11.8889 144.682 12.4028 143.432 12.4028H141.668V8.98611Z" fill="#FEF4E5"/>
<path d="M165.986 16.8611L162.486 7.13889H159.43L155.875 16.8611H158.097L158.791 14.8472H162.875L163.555 16.8611H165.986ZM160.847 8.91667H160.889L162.277 13.0694H159.416L160.847 8.91667Z" fill="#FEF4E5"/>
<path d="M177.212 17C179.392 17 181.378 16.2083 181.378 13.9306C181.378 11.7361 179.365 11.2222 177.823 10.7917C176.92 10.5278 176.267 10.2778 176.267 9.63889C176.267 9.01389 176.934 8.73611 177.962 8.73611C178.906 8.73611 179.753 8.94444 180.698 9.22222V7.51389C180.031 7.23611 179.003 7 177.92 7C175.948 7 173.99 7.66667 173.99 9.75C173.99 11.9444 175.795 12.3194 177.365 12.75C178.24 13 179.101 13.2639 179.101 14.0833C179.101 14.8056 178.267 15.2083 177.003 15.2083C175.865 15.2083 174.753 14.9861 173.892 14.625V16.375C174.559 16.6806 175.823 17 177.212 17Z" fill="#FEF4E5"/>
<path d="M192.289 16.8611V7.13889H190.067V16.8611H192.289Z" fill="#FEF4E5"/>
<path d="M208.399 16.8611V14.8611H203.871V7.13889H201.649V16.8611H208.399Z" fill="#FEF4E5"/>
<path d="M224.591 16.8611V15.0139H219.104V12.8056H223.827V11.0417H219.104V8.98611H224.591V7.13889H216.882V16.8611H224.591Z" fill="#FEF4E5"/>
<path d="M236.014 16.8611V7.13889H233.792V16.8611H236.014Z" fill="#FEF4E5"/>
<path d="M253.956 16.8611L252.026 13.6944C253.054 13.125 253.818 12.0833 253.818 10.6111C253.818 7.75 251.331 7.13889 249.54 7.13889H245.318V16.8611H247.54V14.1944H249.915L251.456 16.8611H253.956ZM247.54 8.98611H249.304C250.554 8.98611 251.512 9.48611 251.512 10.6667C251.512 11.8889 250.554 12.4028 249.304 12.4028H247.54V8.98611Z" fill="#FEF4E5"/>
<path d="M267.15 17C270.455 17 272.483 14.8611 272.483 12C272.483 9.13889 270.455 7 267.15 7C263.858 7 261.83 9.13889 261.83 12C261.83 14.8611 263.858 17 267.15 17ZM267.15 15C265.275 15 264.108 13.6806 264.108 12C264.108 10.3194 265.275 9 267.15 9C269.025 9 270.191 10.3194 270.191 12C270.191 13.6806 269.025 15 267.15 15Z" fill="#FEF4E5"/>
</svg>
